<?xml version="1.0" ?><!DOCTYPE svg  PUBLIC '-//W3C//DTD SVG 1.1//EN'  'http://www.w3.org/Graphics/SVG/1.1/DTD/svg11.dtd'><svg height="25px" style="fill-rule:evenodd;clip-rule:evenodd;stroke-linejoin:round;stroke-miterlimit:2;" version="1.1" viewBox="0 0 24 24" width="25px" xml:space="preserve" xmlns="http://www.w3.org/2000/svg" xmlns:serif="http://www.serif.com/" xmlns:xlink="http://www.w3.org/1999/xlink"><g id="Icon"><path d="M16.419,13.591c0,-0 -2.591,2.591 -4.91,4.91c-0.807,0.808 -1.903,1.261 -3.045,1.261c-1.142,0 -2.237,-0.453 -3.044,-1.261c-0.001,-0 -0.001,-0.001 -0.002,-0.001c-0.786,-0.786 -1.228,-1.853 -1.228,-2.964c0,-1.112 0.442,-2.179 1.228,-2.965c2.538,-2.537 5.91,-5.909 8.173,-8.172c1.074,-1.074 2.815,-1.074 3.889,-0c0.001,0 0.001,0.001 0.001,0.001c1.074,1.073 1.074,2.813 0,3.886c-2.53,2.531 -6.36,6.361 -8.311,8.312c-0.39,0.389 -1.021,0.389 -1.411,-0c-0.001,-0.001 -0.002,-0.002 -0.003,-0.003c-0.187,-0.187 -0.292,-0.441 -0.292,-0.706c-0,-0.265 0.105,-0.518 0.292,-0.706c2.354,-2.354 7.249,-7.249 7.249,-7.249c0.293,-0.293 0.293,-0.768 0,-1.061c-0.292,-0.292 -0.768,-0.292 -1.06,0c-0,0 -4.895,4.896 -7.25,7.25c-0.468,0.468 -0.731,1.104 -0.731,1.766c-0,0.663 0.263,1.298 0.731,1.766c0.001,0.001 0.002,0.002 0.003,0.003c0.976,0.976 2.557,0.976 3.533,0c1.95,-1.95 5.78,-5.78 8.311,-8.311c1.659,-1.659 1.659,-4.349 0,-6.008c-0,-0 -0.001,-0.001 -0.001,-0.001c-1.66,-1.66 -4.351,-1.66 -6.011,-0c-2.263,2.263 -5.635,5.635 -8.172,8.173c-1.068,1.067 -1.668,2.515 -1.668,4.025c0,1.509 0.6,2.957 1.668,4.024c0,0.001 0.001,0.001 0.001,0.002c1.089,1.089 2.566,1.7 4.105,1.7c1.54,0 3.017,-0.611 4.106,-1.7c2.319,-2.319 4.91,-4.91 4.91,-4.91c0.293,-0.293 0.293,-0.768 0,-1.061c-0.293,-0.293 -0.768,-0.293 -1.061,-0Z"/></g></svg>