<?xml version="1.0" ?><svg data-name="Layer 2" id="Layer_2" viewBox="0 0 512 512" xmlns="http://www.w3.org/2000/svg"><defs><style>.cls-1{fill:#fff;}</style></defs><title/><path d="M397.5385,8c30.2752,0,54.906,25.6479,54.906,57.1737V260.6949c0,31.5257-24.6308,57.1738-54.906,57.1738H303.1794a8,8,0,0,0-5.7561,2.4442l-36.059,37.359a7.3442,7.3442,0,0,1-10.7286,0l-36.059-37.3591a8,8,0,0,0-5.7561-2.4442H114.4615c-30.2752,0-54.906-25.6481-54.906-57.1738V65.1737C59.5555,33.6479,84.1863,8,114.4615,8h283.077m0-8H114.4615C79.72,0,51.5555,29.1793,51.5555,65.1737V260.6949c0,35.9944,28.164,65.1738,62.906,65.1738h94.3591l36.059,37.3591a15.3427,15.3427,0,0,0,22.2408,0l36.059-37.3591h94.3591c34.742,0,62.906-29.1794,62.906-65.1738V65.1737C460.4445,29.1793,432.2805,0,397.5385,0Z"/><path d="M472,500H40a28,28,0,0,1,0-56H472a28,28,0,0,1,0,56ZM40,452a20,20,0,0,0,0,40H472a20,20,0,0,0,0-40Z"/><path d="M480,452H32a4,4,0,0,1-1.7891-7.5781l82.4864-41.2432A68.3519,68.3519,0,0,1,143.1084,396h239.165a68.0137,68.0137,0,0,1,34.9854,9.69l64.7988,38.88A4,4,0,0,1,480,452ZM48.9443,444H465.5586l-52.415-31.45a60.0268,60.0268,0,0,0-30.87-8.55H143.1084a60.2979,60.2979,0,0,0-26.833,6.335Z"/><path d="M120,484H72a12,12,0,0,1,0-24h48a12,12,0,0,1,0,24ZM72,468a4,4,0,0,0,0,8h48a4,4,0,0,0,0-8Z"/><path d="M184,484H152a12,12,0,0,1,0-24h32a12,12,0,0,1,0,24Zm-32-16a4,4,0,0,0,0,8h32a4,4,0,0,0,0-8Z"/><circle class="cls-1" cx="88" cy="216" r="72"/><path d="M88,292a76,76,0,1,1,76-76A76.0865,76.0865,0,0,1,88,292Zm0-144a68,68,0,1,0,68,68A68.0773,68.0773,0,0,0,88,148Z"/><path d="M128,212a4,4,0,0,1-4-4,12,12,0,0,0-24,0,4,4,0,0,1-8,0,20,20,0,0,1,40,0A4,4,0,0,1,128,212Z"/><path d="M80,212a4,4,0,0,1-4-4,12,12,0,0,0-24,0,4,4,0,0,1-8,0,20,20,0,0,1,40,0A4,4,0,0,1,80,212Z"/><path d="M87.9434,261.3115a28.63,28.63,0,0,1-9.2286-1.5234c-12.414-4.2119-17.2753-15.1563-18.47-18.41a4,4,0,0,1,7.51-2.7558c.63,1.7158,4.2441,10.4394,13.53,13.59a21.4,21.4,0,0,0,13.4306,0c9.2852-3.15,12.8994-11.874,13.5293-13.59a4,4,0,1,1,7.51,2.7558c-1.1944,3.2539-6.0557,14.1983-18.47,18.41A29.4058,29.4058,0,0,1,87.9434,261.3115Z"/><circle class="cls-1" cx="376" cy="296" r="72"/><path d="M376,372a76,76,0,1,1,76-76A76.0865,76.0865,0,0,1,376,372Zm0-144a68,68,0,1,0,68,68A68.0773,68.0773,0,0,0,376,228Z"/><path d="M352,292a4,4,0,0,1-4-4V272a4,4,0,0,1,8,0v16A4,4,0,0,1,352,292Z"/><path d="M400,292a4,4,0,0,1-4-4V272a4,4,0,0,1,8,0v16A4,4,0,0,1,400,292Z"/><path d="M376,340a12,12,0,1,1,12-12A12.0131,12.0131,0,0,1,376,340Zm0-16a4,4,0,1,0,4,4A4.0039,4.0039,0,0,0,376,324Z"/><path d="M280,180a76,76,0,1,1,76-76A76.0865,76.0865,0,0,1,280,180Zm0-144a68,68,0,1,0,68,68A68.0773,68.0773,0,0,0,280,36Z"/><path d="M272,84H240a4,4,0,0,1,0-8h32a4,4,0,0,1,0,8Z"/><path d="M320,84H288a4,4,0,0,1,0-8h32a4,4,0,0,1,0,8Z"/><path d="M288,132H272a4,4,0,0,1,0-8h16a4,4,0,0,1,0,8Z"/></svg>